<svg width="50" height="50" viewBox="0 0 50 50" fill="none" xmlns="http://www.w3.org/2000/svg">
<path d="M10.45 44.2C10.45 43.7667 10.3667 43.55 10.2 43.55L9.05 44.1C9.05 43.8667 8.91667 43.7 8.65 43.6L8.25 43.55C7.98333 43.55 7.65 43.6667 7.25 43.9C7.18333 43.7333 7.1 43.5667 7 43.4C6.9 43.2333 6.81667 43.0833 6.75 42.95C6.31667 42.1167 5.88333 41.2 5.45 40.2C5.05 39.1667 4.66667 38.1833 4.3 37.25C3.96667 36.3167 3.7 35.5833 3.5 35.05C3.36667 34.6167 3.21667 33.9667 3.05 33.1C2.88333 32.2333 2.71667 31.1333 2.55 29.8C2.91667 30.0333 3.2 30.15 3.4 30.15C3.63333 30.15 3.85 29.8 4.05 29.1C4.15 29.2333 4.33333 29.3 4.6 29.3C4.8 29.3 4.95 29.2333 5.05 29.1L5.85 27.9L6.75 28.2H6.8C6.86667 28.2 6.93333 28.1667 7 28.1C7.06667 28.0333 7.16667 27.9667 7.3 27.9C7.56667 27.7333 7.76667 27.65 7.9 27.65L8.05 27.7C8.88333 28.1 9.41667 28.8333 9.65 29.9C10.25 32.4333 10.85 33.7 11.45 33.7C12.05 33.7 12.75 33.0667 13.55 31.8C13.95 31.1667 14.35 30.4333 14.75 29.6C15.1833 28.7667 15.6167 27.8333 16.05 26.8C16.1167 27.2 16.1833 27.4 16.25 27.4C16.4167 27.4 16.7 26.9833 17.1 26.15C17.5333 25.3167 18.2167 24.1667 19.15 22.7C19.6833 21.8 20.35 20.7833 21.15 19.65C21.9833 18.5167 22.8667 17.35 23.8 16.15C24.7333 14.95 25.6333 13.8167 26.5 12.75C27.4 11.6833 28.2 10.7667 28.9 10C29.6 9.23333 30.1167 8.73333 30.45 8.5C31.7167 7.63333 32.7167 6.8 33.45 6C33.4167 6.23333 33.3667 6.45 33.3 6.65C33.2667 6.81667 33.25 6.93333 33.25 7C33.25 7.13333 33.3167 7.2 33.45 7.2L34.85 6.5V6.7C34.85 6.96667 34.9167 7.1 35.05 7.1C35.15 7.1 35.35 6.95 35.65 6.65C35.95 6.35 36.1167 6.13333 36.15 6L36.05 6.7L37.75 5.7L37.35 6.6C37.8833 6.23333 38.2667 6.05 38.5 6.05C38.6333 6.05 38.7333 6.13333 38.8 6.3C38.8667 6.43333 38.9 6.56666 38.9 6.7C38.9 6.9 38.8167 7.13333 38.65 7.4C38.4833 7.66667 38.2667 7.98333 38 8.35C37.8 8.61667 37.4667 9.01667 37 9.55C36.5667 10.05 35.9 10.8 35 11.8C34.1 12.7667 32.9 14.1167 31.4 15.85C31 16.2833 30.3833 17.05 29.55 18.15C28.7167 19.2167 27.7667 20.4667 26.7 21.9C25.6667 23.3 24.6333 24.7167 23.6 26.15C22.5667 27.5833 21.65 28.8833 20.85 30.05C20.05 31.1833 19.4833 32.0333 19.15 32.6L16.05 37.85C15.3833 38.9833 14.8333 39.9167 14.4 40.65C13.9667 41.35 13.6333 41.8333 13.4 42.1C12.9 42.7 12.35 43.2333 11.75 43.7L11.3 43.45L10.9 43.7L10.45 44.2Z"/>
</svg>
